<svg xmlns="http://www.w3.org/2000/svg" xmlns:xlink="http://www.w3.org/1999/xlink" width="194.098" height="68.896" viewBox="0 0 194.098 68.896"><defs><style>.a{fill:none;}.b{clip-path:url(#a);}.c{fill:#dcb138;}.d{fill:#174768;}.e{fill:#066595;}.f{fill:#d92b3b;}.g{fill:#5eb247;}.h{fill:#4b9745;}.i{fill:#ba232f;}.j{fill:#991d42;}.k{fill:#e0432f;}.l{fill:#2fb1d3;}.m{fill:#eebe24;}.n{fill:#417d44;}.o{fill:#c1942f;}.p{fill:#248cc4;}.q{fill:#ce1f63;}.r{fill:#ef9b2c;}.s{fill:#e5682f;}.t{fill:#221815;}</style><clipPath id="a"><path class="a" d="M155.218,246.388h14.323v51.838l-29.564.048ZM117.6,274.729l25.518-32.553,6.289,4.212-14.27,48.591Zm25.608-40.208a1.643,1.643,0,0,0-.224.021,1.945,1.945,0,0,0-.224.049,2.291,2.291,0,0,0-.222.066,2.2,2.2,0,0,0-.207.091,2.288,2.288,0,0,0-.205.108,2.212,2.212,0,0,0-.2.133c-.059.047-.12.093-.178.144a2,2,0,0,0-.171.182,1.245,1.245,0,0,0-.1.106l-30.1,38.39a2.391,2.391,0,0,0,.076,3.04l22.289,25.734a2.394,2.394,0,0,0,1.809.823,2.333,2.333,0,0,0,.51-.061,2.362,2.362,0,0,0,.508.061l.017,0,.013,0,35.535-.057a2.389,2.389,0,0,0,2.387-2.389V243.65a2.39,2.39,0,0,0-2.389-2.391H154.162l-9.477-6.348c-.042-.028-.091-.047-.136-.072a2.329,2.329,0,0,0-.215-.116c-.072-.03-.144-.057-.218-.083s-.148-.048-.224-.066a1.733,1.733,0,0,0-.228-.038,1.649,1.649,0,0,0-.227-.021h-.059c-.057,0-.114,0-.172.006" transform="translate(-110.867 -234.515)"/></clipPath></defs><g transform="translate(0 0)"><g class="b"><path class="c" d="M222.1,209.772l-20.971-3.453,3.811,47.668Z" transform="translate(-159.488 -219.328)"/><path class="d" d="M154.871,213.8,140.027,223l32,35.023Z" transform="translate(-126.574 -223.359)"/><path class="e" d="M117.227,247.657l42.522,21.094-32-35.025Z" transform="translate(-114.293 -234.09)"/><path class="f" d="M185.548,206.319l-13.35,3.453,17.16,44.215-1.1-23.136-1.062-4.78Z" transform="translate(-143.902 -219.328)"/><path class="g" d="M111.649,263.921l-4.778,16.792,47.3,4.3Z" transform="translate(-108.715 -250.354)"/><path class="h" d="M226.554,213.8l-17.16,44.215L241.4,223Z" transform="translate(-163.937 -223.359)"/><path class="i" d="M241.4,233.725h0l-32,35.025,42.524-21.094Z" transform="translate(-163.936 -234.09)"/><path class="j" d="M234.4,350.108l12.9-11.763-37.909-28.7Z" transform="translate(-163.937 -274.98)"/><path class="k" d="M251.915,263.921,209.39,285.015l47.3-4.3Z" transform="translate(-163.935 -250.354)"/><path class="l" d="M256.694,300.316l-47.3,4.3L255.082,317.7Z" transform="translate(-163.937 -269.958)"/><path class="m" d="M247.3,338.348h0l7.78-15.626-45.69-13.079Z" transform="translate(-163.936 -274.982)"/><path class="n" d="M110.361,322.72h0l7.782,15.626,37.907-28.707Z" transform="translate(-110.595 -274.98)"/><path class="o" d="M127.228,338.348h0l15.085,11.763,22.823-40.467Z" transform="translate(-119.68 -274.982)"/><path class="p" d="M106.872,300.316l1.61,17.383,45.69-13.081Z" transform="translate(-108.715 -269.958)"/><path class="q" d="M199.2,309.641l-8.728,46.773H207.93Z" transform="translate(-153.746 -274.98)"/><path class="r" d="M159.924,350.108l14.094,6.306,8.728-46.773Z" transform="translate(-137.291 -274.98)"/><path class="s" d="M218.12,356.416l16.278-6.305-25.006-40.467Z" transform="translate(-163.936 -274.982)"/></g></g><g transform="translate(78.536 10.25)"><g transform="translate(0 13.023)"><path class="t" d="M285.366,359.826A7.409,7.409,0,0,1,282.539,357a8.544,8.544,0,0,1,0-8.107,7.4,7.4,0,0,1,2.839-2.827,8.077,8.077,0,0,1,4.054-1.027,8.221,8.221,0,0,1,3.2.607,6.584,6.584,0,0,1,2.476,1.8l-1.386,1.392a5.477,5.477,0,0,0-4.2-1.835,5.926,5.926,0,0,0-3.009.774,5.532,5.532,0,0,0-2.1,2.132,6.481,6.481,0,0,0,0,6.074,5.532,5.532,0,0,0,2.1,2.132,5.935,5.935,0,0,0,3.009.773,5.486,5.486,0,0,0,4.2-1.857l1.386,1.392a6.628,6.628,0,0,1-2.486,1.811,8.142,8.142,0,0,1-3.211.619,8.029,8.029,0,0,1-4.044-1.028" transform="translate(-281.321 -317.319)"/><path class="t" d="M325.065,357.017h-7.939l-1.643,3.865h-2.2l6.763-15.463h2.112l6.785,15.463h-2.24Zm-.748-1.767-3.222-7.577-3.221,7.577Z" transform="translate(-298.434 -317.525)"/><path class="t" d="M366.273,345.421v15.462h-1.749l-8.961-11.53v11.53h-2.134V345.421h1.749l8.961,11.53v-11.53Z" transform="translate(-320.056 -317.526)"/><path class="t" d="M419.041,345.421v15.462h-2.134v-6.891H408.33v6.891H406.2V345.421h2.134v6.649h8.576v-6.649Z" transform="translate(-348.478 -317.526)"/><path class="t" d="M455.05,358.962v1.921H444.21V345.421h10.54v1.921h-8.406v4.749h7.489v1.878h-7.489v4.992Z" transform="translate(-368.954 -317.526)"/><path class="t" d="M476.585,345.421h2.132v13.54H486.8v1.921H476.585Z" transform="translate(-386.393 -317.526)"/><path class="t" d="M515.834,346.857a5.531,5.531,0,0,1,0,7.907,6.757,6.757,0,0,1-4.567,1.436h-3.691v4.682h-2.134V345.421h5.825a6.761,6.761,0,0,1,4.567,1.436m-1.537,6.527a3.639,3.639,0,0,0,0-5.147,4.7,4.7,0,0,0-3.1-.895h-3.626v6.936H511.2a4.7,4.7,0,0,0,3.1-.895" transform="translate(-401.936 -317.526)"/><path class="t" d="M287.069,288.605h-5.976v-3.646h16.275v3.646h-5.976V304.3h-4.323Z" transform="translate(-281.093 -284.959)"/><path class="t" d="M329.388,300.151h-8.672l-1.654,4.143h-4.429l8.324-19.336h4.27l8.351,19.336h-4.536Zm-1.361-3.4-2.962-7.4-2.962,7.4Z" transform="translate(-299.159 -284.959)"/><rect class="t" width="4.323" height="19.336" transform="translate(39.167)"/><path class="t" d="M412.787,284.959l-6.11,19.336h-4.643L397.926,291.2,393.683,304.3h-4.615l-6.138-19.336h4.483l4.214,13.59,4.4-13.59h4l4.269,13.7,4.348-13.7Z" transform="translate(-335.947 -284.959)"/><path class="t" d="M458.062,300.151H449.39l-1.654,4.143h-4.429l8.324-19.336H455.9l8.351,19.336h-4.535Zm-1.361-3.4-2.961-7.4-2.962,7.4Z" transform="translate(-368.468 -284.959)"/><path class="t" d="M510.632,284.959V304.3h-3.548l-9.312-11.74V304.3H493.5V284.959h3.576l9.285,11.739V284.959Z" transform="translate(-395.505 -284.959)"/></g><g transform="translate(1.195)"><path class="t" d="M289.412,257.757v6.9h-.952V261.58h-3.826v3.074h-.952v-6.9h.952v2.966h3.826v-2.966Z" transform="translate(-283.683 -257.284)"/><path class="t" d="M304.757,264.256h-4.092a1.654,1.654,0,0,0,.585,1.109,1.868,1.868,0,0,0,1.242.418,1.841,1.841,0,0,0,1.456-.63l.505.611a2.211,2.211,0,0,1-.853.63,3.109,3.109,0,0,1-2.555-.123,2.374,2.374,0,0,1-.956-.95,2.788,2.788,0,0,1-.339-1.38,2.839,2.839,0,0,1,.329-1.369,2.388,2.388,0,0,1,.9-.95,2.5,2.5,0,0,1,1.3-.34,2.449,2.449,0,0,1,1.29.34,2.352,2.352,0,0,1,.885.95,2.989,2.989,0,0,1,.319,1.4C304.776,264.043,304.769,264.138,304.757,264.256Zm-3.574-1.764a1.69,1.69,0,0,0-.519,1.085H303.9a1.7,1.7,0,0,0-.519-1.08,1.659,1.659,0,0,0-2.2-.005Z" transform="translate(-292.337 -259.182)"/><path class="t" d="M316.992,261.813a2.1,2.1,0,0,1,.556,1.586v3.153h-.866v-.69a1.454,1.454,0,0,1-.651.557,2.423,2.423,0,0,1-1,.191,2.048,2.048,0,0,1-1.356-.424,1.376,1.376,0,0,1-.509-1.113,1.392,1.392,0,0,1,.485-1.109,2.334,2.334,0,0,1,1.541-.418h1.447v-.188a1.231,1.231,0,0,0-.343-.936,1.415,1.415,0,0,0-1.009-.324,2.584,2.584,0,0,0-.876.152,2.248,2.248,0,0,0-.723.409l-.381-.709a2.718,2.718,0,0,1,.932-.5,3.769,3.769,0,0,1,1.152-.173A2.232,2.232,0,0,1,316.992,261.813Zm-.909,3.827a1.371,1.371,0,0,0,.552-.685v-.729h-1.409q-1.162,0-1.162.808a.739.739,0,0,0,.3.621,1.313,1.313,0,0,0,.818.227A1.655,1.655,0,0,0,316.082,265.641Z" transform="translate(-299.561 -259.182)"/><path class="t" d="M326.961,256.86h.914v7.311h-.914Z" transform="translate(-306.994 -256.8)"/><path class="t" d="M335.327,264.97a1.356,1.356,0,0,1-.5.27,1.986,1.986,0,0,1-.609.094,1.583,1.583,0,0,1-1.18-.424,1.65,1.65,0,0,1-.418-1.211v-2.867h-.857v-.778h.857V258.91h.913v1.143h1.447v.778h-1.447v2.828a.933.933,0,0,0,.2.649.743.743,0,0,0,.585.227,1.08,1.08,0,0,0,.714-.246Z" transform="translate(-309.583 -257.905)"/><path class="t" d="M346.716,259.476a2.315,2.315,0,0,1,.566,1.69v3h-.913v-2.9a1.639,1.639,0,0,0-.352-1.142,1.3,1.3,0,0,0-1.009-.385,1.543,1.543,0,0,0-1.171.448,1.788,1.788,0,0,0-.428,1.285v2.69h-.914V256.86h.914v2.828a1.872,1.872,0,0,1,.747-.581,2.491,2.491,0,0,1,1.032-.207A2.045,2.045,0,0,1,346.716,259.476Z" transform="translate(-315.361 -256.8)"/><path class="t" d="M363.513,258.427v.453h1.466v.778h-1.447V264.1h-.913v-4.443h-.857v-.778h.857v-.463a1.694,1.694,0,0,1,.438-1.232,1.626,1.626,0,0,1,1.228-.454,2.024,2.024,0,0,1,.571.079,1.378,1.378,0,0,1,.457.227l-.276.719a1.115,1.115,0,0,0-.7-.246Q363.514,257.509,363.513,258.427Z" transform="translate(-325.739 -256.731)"/><path class="t" d="M371.309,266.267a2.449,2.449,0,0,1-.937-.951,2.955,2.955,0,0,1,0-2.749,2.411,2.411,0,0,1,.937-.946,2.846,2.846,0,0,1,2.7,0,2.427,2.427,0,0,1,.932.946,2.966,2.966,0,0,1,0,2.749,2.466,2.466,0,0,1-.932.951,2.813,2.813,0,0,1-2.7,0Zm2.222-.714a1.625,1.625,0,0,0,.6-.65,2.22,2.22,0,0,0,0-1.922,1.586,1.586,0,0,0-.6-.646,1.79,1.79,0,0,0-1.742,0,1.615,1.615,0,0,0-.609.646,2.183,2.183,0,0,0,0,1.922,1.707,1.707,0,0,0,2.351.65Z" transform="translate(-330.194 -259.182)"/><path class="t" d="M386.342,261.517a2.489,2.489,0,0,1,1.132-.236v.916a1.658,1.658,0,0,0-.209-.01,1.506,1.506,0,0,0-1.165.458,1.851,1.851,0,0,0-.424,1.306v2.6h-.914V261.33h.876v.877A1.585,1.585,0,0,1,386.342,261.517Z" transform="translate(-338.128 -259.182)"/><path class="t" d="M403.364,262.93h-3.54l-.733,1.724h-.98l3.017-6.9h.942l3.026,6.9h-1Zm-.333-.788-1.438-3.38-1.437,3.38Z" transform="translate(-345.318 -257.284)"/><path class="t" d="M415.706,256.86h.914v7.311h-.914Z" transform="translate(-354.795 -256.8)"/><path class="t" d="M422.08,256.86h.914v7.311h-.914Z" transform="translate(-358.229 -256.8)"/></g></g></svg>